{
    "asset" : {
        "generator" : "Khronos glTF Blender I/O v3.4.50",
        "version" : "2.0"
    },
    "scene" : 0,
    "scenes" : [
        {
            "name" : "Scene",
            "nodes" : [
                1
            ]
        }
    ],
    "nodes" : [
        {
            "mesh" : 0,
            "name" : "jeans_denim_jacket",
            "translation" : [
                0,
                -1.52587890625e-05,
                0
            ]
        },
        {
            "children" : [
                0
            ],
            "name" : "jeans_denim_jacket_grp"
        }
    ],
    "materials" : [
        {
            "doubleSided" : true,
            "name" : "jeans_denim_jacket_mat.001",
            "normalTexture" : {
                "index" : 0
            },
            "pbrMetallicRoughness" : {
                "baseColorTexture" : {
                    "index" : 1
                },
                "metallicRoughnessTexture" : {
                    "index" : 2
                }
            }
        }
    ],
    "meshes" : [
        {
            "name" : "Mesh",
            "primitives" : [
                {
                    "attributes" : {
                        "POSITION" : 0,
                        "TEXCOORD_0" : 1,
                        "NORMAL" : 2
                    },
                    "indices" : 3,
                    "material" : 0
                }
            ]
        }
    ],
    "textures" : [
        {
            "sampler" : 0,
            "source" : 0
        },
        {
            "sampler" : 0,
            "source" : 1
        },
        {
            "sampler" : 0,
            "source" : 2
        }
    ],
    "images" : [
        {
            "mimeType" : "image/png",
            "name" : "Jeans_Denim_Jacket_norm",
            "uri" : "Jeans_Denim_Jacket_norm.png"
        },
        {
            "mimeType" : "image/png",
            "name" : "Jeans_Denim_Jacket_bcolor",
            "uri" : "Jeans_Denim_Jacket_bcolor.png"
        },
        {
            "mimeType" : "image/png",
            "name" : "Jeans_Denim_Jacket_metal-Jeans_Denim_Jacket_rough",
            "uri" : "Jeans_Denim_Jacket_metal-Jeans_Denim_Jacket_rough.png"
        }
    ],
    "accessors" : [
        {
            "bufferView" : 0,
            "componentType" : 5126,
            "count" : 84224,
            "max" : [
                54.1568603515625,
                69.23563385009766,
                15.684690475463867
            ],
            "min" : [
                -54.15686798095703,
                3.0517578125e-05,
                -15.684684753417969
            ],
            "type" : "VEC3"
        },
        {
            "bufferView" : 1,
            "componentType" : 5126,
            "count" : 84224,
            "type" : "VEC2"
        },
        {
            "bufferView" : 2,
            "componentType" : 5126,
            "count" : 84224,
            "type" : "VEC3"
        },
        {
            "bufferView" : 3,
            "componentType" : 5125,
            "count" : 126252,
            "type" : "SCALAR"
        }
    ],
    "bufferViews" : [
        {
            "buffer" : 0,
            "byteLength" : 1010688,
            "byteOffset" : 0,
            "target" : 34962
        },
        {
            "buffer" : 0,
            "byteLength" : 673792,
            "byteOffset" : 1010688,
            "target" : 34962
        },
        {
            "buffer" : 0,
            "byteLength" : 1010688,
            "byteOffset" : 1684480,
            "target" : 34962
        },
        {
            "buffer" : 0,
            "byteLength" : 505008,
            "byteOffset" : 2695168,
            "target" : 34963
        }
    ],
    "samplers" : [
        {
            "magFilter" : 9729,
            "minFilter" : 9987
        }
    ],
    "buffers" : [
        {
            "byteLength" : 3200176,
            "uri" : "Jeans Denim Jacket.bin"
        }
    ]
}
